<?xml version="1.0" standalone="no"?>
<!DOCTYPE svg PUBLIC "-//W3C//DTD SVG 20010904//EN"
 "http://www.w3.org/TR/2001/REC-SVG-20010904/DTD/svg10.dtd">
<svg version="1.0" xmlns="http://www.w3.org/2000/svg"
 width="75.000000pt" height="25.000000pt" viewBox="0 0 75.000000 25.000000"
 preserveAspectRatio="xMidYMid meet">

<g transform="translate(0.000000,25.000000) scale(0.100000,-0.100000)"
fill="#000000" stroke="none">
<path d="M40 130 l0 -73 41 6 c51 7 72 26 72 67 0 41 -21 60 -72 67 l-41 6 0
-73z m84 18 c15 -25 -3 -52 -38 -56 -24 -3 -26 -1 -26 38 0 39 2 41 26 38 15
-2 32 -11 38 -20z"/>
<path d="M180 185 c-19 -23 -7 -49 30 -61 19 -6 36 -16 38 -23 6 -17 -24 -24
-48 -11 -26 14 -37 6 -20 -15 16 -20 64 -19 84 1 30 29 16 55 -36 68 -16 4
-28 13 -28 22 0 13 7 15 37 9 33 -6 35 -5 24 9 -17 20 -65 21 -81 1z"/>
<path d="M300 130 c0 -40 4 -70 10 -70 6 0 10 30 10 70 0 40 -4 70 -10 70 -6
0 -10 -30 -10 -70z"/>
<path d="M344 187 c-3 -8 -4 -39 -2 -68 l3 -54 44 0 c27 0 46 5 49 13 2 8 -8
12 -32 12 l-36 0 0 49 c0 49 -15 76 -26 48z"/>
<path d="M430 195 c0 -20 55 -135 64 -135 7 0 24 29 39 65 31 74 31 75 16 75
-5 0 -20 -23 -33 -51 l-22 -51 -22 51 c-11 28 -26 51 -31 51 -6 0 -11 -2 -11
-5z"/>
<path d="M622 188 c-5 -7 -20 -37 -32 -66 -23 -52 -20 -83 4 -49 16 21 69 23
86 2 28 -34 27 0 -2 60 -34 68 -39 73 -56 53z m38 -70 c0 -4 -9 -8 -20 -8 -21
0 -24 8 -13 36 6 16 7 16 20 -2 7 -10 13 -21 13 -26z"/>
</g>
</svg>
